# xmcd CD database file
#
# Track frame offsets:
#	150
#	18186
#	36186
#	52677
#	64081
#	80803
#	97380
#	122098
#	137231
#	153345
#	166342
#	180578
#
# Disc length: 2773 seconds
#
# Revision: 0
# Processed by: cddbd v1.5.2PL0 Copyright (c) Steve Scherf et al.
# Submitted via: CDex 1.51
#
DISCID=9c0ad30c
DTITLE=Jann Klose - Reverie
DYEAR=2009
DGENRE=Jazz
TTITLE0=Beautiful Dream
TTITLE1=Hold Me Down
TTITLE2=Doing Time
TTITLE3=Mother Said, Father Said
TTITLE4=Clouds
TTITLE5=Give In To This Life
TTITLE6=All These Rivers
TTITLE7=Question Of The Heart
TTITLE8=Remember Your Name
TTITLE9=Ithaca
TTITLE10=Watching You Go
TTITLE11=The Beginning
EXTD=YEAR: 2009
EXTT0=
EXTT1=
EXTT2=
EXTT3=
EXTT4=
EXTT5=
EXTT6=
EXTT7=
EXTT8=
EXTT9=
EXTT10=
EXTT11=
PLAYORDER=
